:SAMPLES-PER-SECOND 30
:FULLY-SPECIFIED
:DEGREES
825
root  14.3216 38.6711 -19.9974 21.1087 75.1887 27.0725
RightUpLeg  -19.3099 -8.97931 -5.02426
RightLeg  0.448624 -19.4961 6.53017
RightFoot  -0.698113 -0.483181 5.14359
RightToes  0.00048216 0.542163 -0.142577
Spine  10.4157 -2.54774 -9.71638
Spine1  5.45307 -5.67477 8.94574
HEad  -8.14503 -21.4941 6.82827
LeftShoulder1  7.82911 -12.2185 -43.3115
LeftArm  -12.9619 14.3192 -23.2317
LeftForeArm  41.0532 -44.3896 -8.15316
LeftHand  -0.25398 0.0180481 5.50724
RightShoulder  4.25723 7.53878 32.6107
RightArm  4.01737 -24.2296 34.8184
RightForeArm  2.3488 28.3128 6.00154
RightHand  -1.34174 4.19766 -16.4809
LeftUpLeg  16.5998 3.90104 -10.0578
LeftLeg  9.66352 17.9805 -3.16869
LeftFoot  -19.1382 0.245096 1.93402
LeftToes  1.06246e-005 4.65856e-005 -8.18502e-006
826
root  16.1477 38.2073 -19.6416 22.2031 74.7675 28.224
RightUpLeg  -18.3696 -8.26577 -4.60245
RightLeg  -5.38613 -25.953 9.73936
RightFoot  -1.27889 -0.624731 6.98751
RightToes  0.00048216 0.542163 -0.142577
Spine  9.77095 -2.7123 -10.3201
Spine1  5.32082 -5.95631 9.58673
HEad  -8.48629 -22.452 7.03147
LeftShoulder1  7.77604 -12.1511 -43.1967
LeftArm  -13.525 12.6379 -23.0202
LeftForeArm  41.4507 -44.185 -8.06085
LeftHand  -0.25398 0.0180481 5.50724
RightShoulder  4.16061 7.37342 32.308
RightArm  2.05342 -25.3104 35.5194
RightForeArm  2.22433 26.1913 5.49972
RightHand  -1.2361 3.81181 -15.8221
LeftUpLeg  19.0198 4.91093 -10.0389
LeftLeg  11.371 16.9276 -2.92643
LeftFoot  -20.6585 0.138106 0.162791
LeftToes  1.06246e-005 4.65856e-005 -8.18502e-006
827
root  18.0527 37.8661 -19.2798 21.7256 74.7028 27.6149
RightUpLeg  -18.3629 -8.37699 -3.52723
RightLeg  -3.91862 -31.5224 10.3161
RightFoot  -2.12734 -0.445473 5.30878
RightToes  0.00048216 0.542163 -0.142577
Spine  8.87244 -3.16088 -9.81119
Spine1  5.48675 -6.51145 10.0442
HEad  -8.74428 -23.1023 6.90389
LeftShoulder1  7.78258 -12.1801 -43.1504
LeftArm  -14.0281 11.8063 -23.2261
LeftForeArm  41.3178 -43.5869 -7.87501
LeftHand  -0.25398 0.0180481 5.50724
RightShoulder  4.08722 7.26407 32.0134
RightArm  0.0673927 -26.1585 36.1334
RightForeArm  2.2995 23.2279 4.9327
RightHand  -1.05333 3.04237 -14.7144
LeftUpLeg  21.3405 7.91771 -8.45326
LeftLeg  13.471 13.3361 -2.37484
LeftFoot  -20.5681 -0.0141663 -1.70001
LeftToes  1.06246e-005 4.65856e-005 -8.18502e-006
828
root  20.1034 37.6683 -18.9165 18.5877 75.0818 23.9307
RightUpLeg  -20.1753 -12.033 -0.614843
RightLeg  4.12547 -31.681 7.06779
RightFoot  -2.19397 0.172485 -2.24707
RightToes  0.00048216 0.542163 -0.142577
Spine  7.28679 -3.96771 -7.35362
Spine1  5.77598 -7.18142 9.99113
HEad  -8.50149 -23.7119 6.1111
LeftShoulder1  7.88391 -12.2429 -43.5609
LeftArm  -13.6659 11.7578 -23.5668
LeftForeArm  40.6292 -42.3978 -7.544
LeftHand  -0.25398 0.0180481 5.50724
RightShoulder  4.00449 7.10732 31.7935
RightArm  -2.88445 -27.3962 36.0592
RightForeArm  3.87704 20.277 4.88565
RightHand  -0.855913 2.09732 -13.4549
LeftUpLeg  23.8859 14.6289 -3.55896
LeftLeg  15.7673 4.96636 -1.76193
LeftFoot  -18.9653 -0.229476 -5.17316
LeftToes  1.06246e-005 4.65856e-005 -8.18502e-006
829
root  22.2777 37.531 -18.5347 10.6852 74.7743 15.4842
RightUpLeg  -24.2041 -23.3104 7.41167
RightLeg  14.8123 -19.4039 0.206414
RightFoot  -1.76584 1.04406 -12.5378
RightToes  0.00048216 0.542163 -0.142577
Spine  6.04956 -4.5168 -2.87815
Spine1  5.12765 -7.24432 9.2535
HEad  -7.58582 -24.2342 4.59141
LeftShoulder1  7.96985 -12.1657 -44.2895
LeftArm  -12.5652 12.4268 -24.3002
LeftForeArm  40.0628 -40.6204 -7.0424
LeftHand  -0.25398 0.0180481 5.50724
RightShoulder  3.96033 6.99178 31.7876
RightArm  -6.35639 -28.948 34.9897
RightForeArm  6.79784 17.5414 5.15455
RightHand  -0.668967 1.13675 -12.0194
LeftUpLeg  25.9772 22.0973 3.5753
LeftLeg  20.045 -4.19275 -1.42618
LeftFoot  -14.9791 -0.218573 -10.4154
LeftToes  1.06246e-005 4.65856e-005 -8.18502e-006
830
root  24.3542 37.4456 -18.0919 1.10546 72.8405 5.68561
RightUpLeg  -27.1437 -28.1271 14.4083
RightLeg  22.0693 -10.266 -5.11132
RightFoot  -2.17237 1.53325 -19.1564
RightToes  0.00048216 0.542163 -0.142577
Spine  6.19617 -4.50377 1.44859
Spine1  3.53038 -6.71981 8.87254
HEad  -6.70049 -24.1191 3.15604
LeftShoulder1  7.94312 -11.97 -44.7164
LeftArm  -11.9743 13.8841 -25.769
LeftForeArm  40.1706 -39.0145 -6.57494
LeftHand  -0.25398 0.0180481 5.50724
RightShoulder  4.01493 7.11161 31.8769
RightArm  -9.34361 -29.8049 33.5488
RightForeArm  9.90632 15.0214 5.2433
RightHand  -0.46748 -0.0635421 -10.1658
LeftUpLeg  24.4025 22.1767 7.33489
LeftLeg  28.2692 -4.26187 -2.06521
LeftFoot  -5.43477 0.743954 -14.0366
LeftToes  1.06246e-005 4.65856e-005 -8.18502e-006
831
root  26.1466 37.2798 -17.6013 -5.65474 70.4729 -1.24117
RightUpLeg  -26.1116 -21.6354 14.3537
RightLeg  28.5021 -13.8229 -8.24569
RightFoot  -4.68386 1.1217 -19.4243
RightToes  0.00048216 0.542163 -0.142577
Spine  7.15124 -4.61768 3.64897
Spine1  2.49128 -6.57704 10.0326
HEad  -6.68571 -23.2345 2.95785
LeftShoulder1  7.90438 -11.8933 -44.7202
LeftArm  -12.1971 15.6048 -27.3826
LeftForeArm  40.4798 -38.1749 -6.32635
LeftHand  -0.25398 0.0180481 5.50724
RightShoulder  4.10461 7.37976 31.7695
RightArm  -11.5085 -29.3643 32.8879
RightForeArm  11.8271 13.6018 5.07404
RightHand  -0.281038 -1.5827 -8.31814
LeftUpLeg  18.583 20.4349 9.01957
LeftLeg  40.2382 -2.67739 -2.03536
LeftFoot  9.05551 2.3153 -13.31
LeftToes  1.06246e-005 4.65856e-005 -8.18502e-006
832
root  27.6436 37.0061 -17.1439 -10.0178 68.8597 -6.04604
RightUpLeg  -25.5763 -20.2314 15.414
RightLeg  33.5251 -13.8315 -9.90016
RightFoot  -8.59743 0.355045 -17.0695
RightToes  0.00048216 0.542163 -0.142577
Spine  7.78795 -5.26049 4.50701
Spine1  2.75638 -7.14696 12.008
HEad  -7.32281 -22.266 4.1491
LeftShoulder1  7.9733 -12.0234 -44.7329
LeftArm  -11.8008 16.5533 -28.1668
LeftForeArm  40.3558 -37.6571 -6.19416
LeftHand  -0.25398 0.0180481 5.50724
RightShoulder  4.0959 7.43479 31.4975
RightArm  -12.1777 -28.1805 33.4007
RightForeArm  10.9227 14.4645 4.89734
RightHand  -0.200439 -2.57246 -7.68706
LeftUpLeg  10.1343 16.9255 9.08755
LeftLeg  52.6958 -1.0444 -0.978237
LeftFoot  19.7428 2.8455 -10.6211
LeftToes  1.06246e-005 4.65856e-005 -8.18502e-006
833
root  29.1603 36.9695 -16.7099 -11.8958 66.7512 -8.27219
RightUpLeg  -23.7579 -20.3741 15.7611
RightLeg  35.7836 -12.105 -9.49421
RightFoot  -11.7981 -0.145201 -15.5527
RightToes  0.00048216 0.542163 -0.142577
Spine  7.95292 -5.60805 5.16367
Spine1  3.24064 -7.40877 12.9404
HEad  -7.61575 -21.7128 5.64764
LeftShoulder1  8.0755 -12.1486 -44.9541
LeftArm  -10.0145 16.4814 -28.0304
LeftForeArm  40.1739 -36.8744 -5.99667
LeftHand  -0.25398 0.0180481 5.50724
RightShoulder  3.99434 7.18836 31.4109
RightArm  -10.6508 -26.9869 34.4039
RightForeArm  7.28634 17.425 4.82353
RightHand  -0.276125 -1.95933 -8.88396
LeftUpLeg  2.16705 13.8119 8.66536
LeftLeg  62.5797 0.623346 1.95363
LeftFoot  21.0457 2.16776 -7.84885
LeftToes  1.06246e-005 4.65856e-005 -8.18502e-006
834
root  30.7725 37.2522 -16.2426 -10.9459 62.6342 -7.18377
RightUpLeg  -20.0756 -18.1105 14.6471
RightLeg  35.8056 -10.5963 -8.38483
RightFoot  -13.4763 -0.367791 -14.7685
RightToes  0.00048216 0.542163 -0.142577
Spine  8.08754 -5.03106 5.48426
Spine1  3.2696 -6.63461 12.3939
HEad  -6.93468 -21.0181 6.30002
LeftShoulder1  8.05476 -12.0592 -45.1014
LeftArm  -8.34975 16.429 -27.765
LeftForeArm  40.5572 -36.1621 -5.78943
LeftHand  -0.25398 0.0180481 5.50724
RightShoulder  3.94464 7.01048 31.5697
RightArm  -7.62831 -25.7045 35.348
RightForeArm  3.57459 20.9959 4.75196
RightHand  -0.506256 -0.132098 -11.1474
LeftUpLeg  -3.95198 12.9406 8.14179
LeftLeg  68.2802 2.09435 6.52055
LeftFoot  16.183 1.03071 -4.58874
LeftToes  1.06246e-005 4.65856e-005 -8.18502e-006
